<?xml version="1.0" encoding="UTF-8"?>
<svg id="Layer_1" xmlns="http://www.w3.org/2000/svg" version="1.1" viewBox="0 0 784.52923 928.01903">
  <!-- Generator: Adobe Illustrator 29.1.0, SVG Export Plug-In . SVG Version: 2.1.0 Build 142)  -->
  <defs>
    <style>
      .st0 {
        fill: #363168;
      }

      .st1 {
        fill: #9e6c5d;
      }
    </style>
  </defs>
  <g>
    <path class="st1" d="M180.84533,767.56224c-3.39191.4175-4.4682,1.07117-4.63199,3.54985-.12576,1.99757-.27053,4.00829-.27053,8.87864v21.81018h-2.71704l-22.25254-27.01906v12.06217c0,4.81259.12869,7.05875.27346,8.64394.17987,2.53863.65586,3.64271,4.66196,3.89935v1.8506h-13.45871v-1.8506c3.21058-.27273,3.80941-1.0931,4.09896-3.69974.19961-1.89082.30856-4.03096.30856-8.86256v-13.29712c0-1.70802-.10894-2.79601-1.1282-4.14064-1.00317-1.36656-1.50841-1.58738-3.9381-1.82501v-1.8506h9.797l21.6464,25.36003v-11.08094c0-4.87035-.07385-6.86499-.23836-8.75361-.16378-2.38801-1.17207-3.40215-5.65124-3.67488v-1.8506h13.50039v1.8506Z"/>
    <path class="st1" d="M204.97918,764.94683c9.84306,0,18.13457,7.3015,18.13457,18.10678,0,11.6805-8.1928,19.00393-18.42704,19.00393-10.77823,0-18.60764-7.9793-18.60764-18.43216,0-9.49941,6.76336-18.67856,18.90011-18.67856ZM204.06375,767.21785c-5.76604,0-10.38193,5.35073-10.38193,15.21572,0,9.56229,4.33147,17.33393,11.84355,17.33393,5.68999,0,10.05949-4.99026,10.05949-15.18355,0-11.05096-4.89448-17.36611-11.5211-17.36611Z"/>
    <path class="st1" d="M263.13015,801.60422c-.4621,0-1.09895-.01974-1.77383-.07385-5.90788-.30929-7.96833-1.63198-9.87596-4.30954-2.12918-2.92981-3.84817-6.30199-5.66806-9.40947-.91543-1.57129-1.66123-1.89886-3.77359-1.89886l-1.38046-.03583v8.19061c0,4.5033.56593,4.84768,4.76067,5.32002v1.8506h-15.97834v-1.8506c4.2876-.45625,4.74093-.81672,4.74093-5.32002v-21.23913c0-4.43311-.5652-4.88058-4.74093-5.26591v-1.8506h15.18063c4.55814,0,7.30735.52791,9.49063,2.00049,2.20522,1.4565,3.68073,3.88034,3.68073,7.25032,0,4.80674-3.1477,7.50915-6.90813,9.04535.87741,1.6583,3.08555,5.24983,4.72484,7.74459,1.9515,2.96783,3.09652,4.40532,4.21156,5.66513,1.33366,1.47843,2.16427,1.97271,3.63466,2.44285l-.32537,1.74385ZM242.53591,783.77016c2.52255,0,4.32562-.40215,5.58544-1.47843,1.9186-1.54936,2.72216-3.66464,2.72216-6.50964,0-5.81283-3.52499-7.90837-6.98783-7.90837-1.51353,0-2.301.21862-2.64758.54619-.42116.34731-.54984.96442-.54984,2.17232v13.17794h1.87765Z"/>
    <path class="st1" d="M294.84408,774.86081c-.563-2.24617-1.57349-2.7302-2.13941-3.57178-.94541-1.26201-1.4214-1.68024-4.5691-1.68024h-4.1867v24.51552c0,4.47625.50817,4.89959,5.48746,5.26299v1.8506h-17.36099v-1.8506c4.79869-.36339,5.27103-.76773,5.27103-5.26299v-24.51552h-3.90739c-3.04168,0-3.91617.43432-4.91641,1.86084-.72679,1.05728-1.37753,1.29783-2.08823,3.42701h-1.92372c.36339-3.76043.72679-7.73655.85547-10.51281h1.50549c.82038,1.2759,1.4565,1.32781,3.0585,1.32781h21.78532c1.49452,0,2.14526-.28954,3.03583-1.32781h1.4894c.03583,2.39094.25445,6.89497.52791,10.3132l-1.92445.16378Z"/>
    <path class="st1" d="M341.00892,767.56224c-4.35926.43724-4.76067.7458-4.76067,5.30101v21.27715c0,4.55594.45625,4.82648,4.76067,5.2469v1.8506h-16.1041v-1.8506c4.39435-.54619,4.75994-.69096,4.75994-5.2469v-9.75532h-16.13408v9.75532c0,4.53693.47307,4.77164,4.70583,5.2469v1.8506h-16.04926v-1.8506c4.17793-.45625,4.74093-.69096,4.74093-5.2469v-21.27715c0-4.55521-.49135-4.93542-4.74093-5.30101v-1.8506h16.04926v1.8506c-4.22984.3824-4.70583.76481-4.70583,5.30101v7.37316h16.13408v-7.37316c0-4.5362-.5652-4.88351-4.75994-5.30101v-1.8506h16.1041v1.8506Z"/>
    <path class="st1" d="M400.96735,792.06679c-.76554,2.69437-2.18621,6.7714-3.04168,8.60811-1.47843.32757-5.88375,1.38265-10.03755,1.38265-14.12847,0-20.40559-9.1872-20.40559-18.18356,0-11.25642,8.57813-18.92716,21.38975-18.92716,4.73581,0,8.80991,1.09018,10.32929,1.29272.25445,2.53059.63685,6.3071,1.039,8.82673l-2.01438.3824c-1.12893-4.0529-2.65343-6.15136-5.51232-7.29931-1.34975-.58494-3.41312-.86059-5.09921-.86059-8.3076,0-12.56522,6.63248-12.56522,15.36635,0,10.19329,5.25275,16.97054,13.21889,16.97054,4.93542,0,7.88132-2.46259,10.77531-8.28347l1.92372.72459Z"/>
    <path class="st1" d="M426.96716,801.2379v-1.8506c3.48112-.47234,3.63466-1.05435,2.86913-3.30929-.60395-1.81185-1.55448-3.61785-2.48965-6.24422h-10.31028l-2.10432,5.19499c-1.16695,3.48185-.79552,3.91909,3.57983,4.35853v1.8506h-13.19403v-1.8506c3.44383-.43724,3.56959-.89057,5.44651-5.5964l11.34928-28.84407h3.06581c3.47892,9.45261,7.21522,19.39146,10.72924,28.63349,1.92664,4.96833,2.41872,5.36974,6.08556,5.80698v1.8506h-15.02708ZM422.67663,774.8089c-1.64222,4.20352-3.28736,7.57569-4.7497,11.67977h8.47723l-3.72752-11.67977Z"/>
    <path class="st1" d="M641.42003,801.2379v-1.8506c3.48112-.47234,3.63466-1.05435,2.86913-3.30929-.60395-1.81185-1.55448-3.61785-2.48965-6.24422h-10.31028l-2.10432,5.19499c-1.16695,3.48185-.79552,3.91909,3.57983,4.35853v1.8506h-13.19403v-1.8506c3.44383-.43724,3.56959-.89057,5.44651-5.5964l11.34928-28.84407h3.06581c3.47892,9.45261,7.21522,19.39146,10.72924,28.63349,1.92664,4.96833,2.41872,5.36974,6.08556,5.80698v1.8506h-15.02708ZM637.1295,774.8089c-1.64222,4.20352-3.28736,7.57569-4.7497,11.67977h8.47723l-3.72752-11.67977Z"/>
    <path class="st1" d="M479.12909,801.60422c-.4621,0-1.09895-.01974-1.77383-.07385-5.90788-.30929-7.96833-1.63198-9.87596-4.30954-2.12918-2.92981-3.84817-5.55326-5.66806-8.66075-.91543-1.57129-1.66123-1.89886-3.77359-1.89886l-1.38046-.03583v7.44189c0,4.5033.56593,4.84768,4.76067,5.32002v1.8506h-15.97834v-1.8506c4.2876-.45625,4.74093-.81672,4.74093-5.32002v-21.23913c0-4.43311-.5652-4.88058-4.74093-5.26591v-1.8506h15.18063c4.55814,0,7.30735.52791,9.49063,2.00049,2.20522,1.4565,3.68073,3.88034,3.68073,7.25032,0,4.80674-3.1477,7.50915-6.90813,9.04535.87741,1.6583,3.08555,5.24983,4.72484,7.74459,1.9515,2.96783,3.09652,4.40532,4.21156,5.66513,1.33366,1.47843,2.16427,1.97271,3.63466,2.44285l-.32537,1.74385ZM458.53485,783.77016c2.52255,0,4.32562-.40215,5.58544-1.47843,1.9186-1.54936,2.72216-3.66464,2.72216-6.50964,0-5.81283-3.52499-7.90837-6.98783-7.90837-1.51353,0-2.301.21862-2.64758.54619-.42116.34731-.54984.96442-.54984,2.17232v13.17794h1.87765Z"/>
    <path class="st1" d="M501.37651,764.94683c9.84306,0,18.13457,7.3015,18.13457,18.10678,0,11.6805-8.1928,19.00393-18.42704,19.00393-10.77823,0-18.60764-7.9793-18.60764-18.43216,0-9.49941,6.76336-18.67856,18.90011-18.67856ZM500.46108,767.21785c-5.76604,0-10.38193,5.35073-10.38193,15.21572,0,9.56229,4.33147,17.33393,11.84355,17.33393,5.68999,0,10.05949-4.99026,10.05949-15.18355,0-11.05096-4.89448-17.36611-11.5211-17.36611Z"/>
    <path class="st1" d="M554.26961,791.80942c-.39922,2.12113-1.96759,7.8762-2.47868,9.42848h-26.51601v-1.8506c4.86669-.38533,5.30393-.72898,5.30393-5.33976v-21.12946c0-4.61005-.54619-4.99026-4.74093-5.35585v-1.8506h16.21085v1.8506c-4.30149.40141-4.86742.72679-4.86742,5.35585v21.56962c0,3.12065.22447,4.27663,3.26835,4.33147.09067.03583,3.10164.05484,3.35901.05484,3.00001,0,3.82038-.54107,5.11237-1.97856,1.15379-1.2079,2.47868-3.50086,3.40508-5.66513l1.94346.57909Z"/>
    <path class="st1" d="M558.52212,801.2379v-1.8506c4.26859-.42042,4.74093-.70997,4.74093-5.32002v-21.13019c0-4.62906-.50817-4.98953-4.74093-5.37486v-1.8506h16.1041v1.8506c-4.25251.42042-4.76067.7458-4.76067,5.37486v21.13019c0,4.59323.47307,4.86377,4.76067,5.32002v1.8506h-16.1041Z"/>
    <path class="st1" d="M618.91121,767.56224c-3.39191.4175-3.71948,1.07117-3.88326,3.54985-.12576,1.99757-.27053,4.00829-.27053,8.87864v21.81018h-3.46576l-22.25254-27.01906v12.06217c0,4.81259.12869,7.05875.27346,8.64394.17987,2.53863.65586,3.64271,4.66196,3.89935v1.8506h-13.45871v-1.8506c3.21058-.27273,3.80941-1.0931,4.09896-3.69974.19961-1.89082.30856-4.03096.30856-8.86256v-13.29712c0-1.70802-.10894-2.79601-1.1282-4.14064-1.00317-1.36656-1.50841-1.58738-3.9381-1.82501v-1.8506h9.797l20.89767,25.36003v-11.08094c0-4.87035-.07385-6.86499-.23836-8.75361-.16378-2.38801-.42335-3.40215-4.90252-3.67488v-1.8506h13.50039v1.8506Z"/>
  </g>
  <g>
    <g>
      <path class="st0" d="M315.16876,488.56426c-13.95901,1.92139-16.04988,3.73361-21.44233,19.77921-6.29708,18.75813-20.51466,65.56541-31.71154,101.47285h-9.00663c-10.28074-30.10364-23.21557-63.98799-33.71094-93.01933-11.29196,32.91749-21.20105,63.20134-31.33918,93.01933h-8.91444c-9.56266-32.56529-21.1211-67.56494-31.90529-101.87964-5.12308-15.67434-7.44802-18.03803-20.20063-19.37242v-5.79632h50.96722v5.79632c-14.71671,1.52993-15.11356,3.82334-12.33631,13.67817,7.52293,25.71237,15.28066,51.17424,23.12914,77.6385,10.76834-30.47939,22.24324-63.71805,32.18258-95.49258h7.09871c11.07444,32.66699,22.22019,63.26752,33.62019,95.68812,8.15386-25.14519,19.14044-59.58888,23.21989-75.55634,2.94003-11.38477,1.28131-14.10477-15.61773-15.95587v-5.79632h45.9673v5.79632Z"/>
      <path class="st0" d="M365.34566,609.96102v-5.79595c12.82463-1.60097,14.12611-3.59302,11.34814-11.20493-2.47187-7.31467-6.29636-16.92236-10.24833-28.44023h-42.1032c-2.99549,8.31256-5.93624,15.90876-8.57088,23.57974-4.32866,12.64849-1.19416,14.21395,14.96735,16.06542v5.79595h-46.40016v-5.79595c12.49836-1.56545,15.67247-3.00565,22.58103-20.40584l41.36547-102.4106h5.04883c12.53438,33.5673,27.79658,68.84329,40.36624,102.485,6.52756,17.23568,8.31304,18.76598,22.1849,20.33144v5.79595h-50.5394ZM345.93514,507.60019c-6.24162,16.33536-12.77206,33.29698-18.54552,48.54434h36.09926l-17.55374-48.54434Z"/>
      <path class="st0" d="M422.09442,482.76794h54.25657v5.79632c-15.25977,1.4402-17.93043,2.73945-17.93043,19.97886v33.51645c4.00383-.53241,8.60257-3.66331,14.49848-9.24802,11.539-10.86432,24.00927-23.67732,32.56431-33.35979,5.73745-6.54746,5.03521-9.16165-3.60265-10.33565l-5.234-.55185v-5.79632h48.8886v5.79632c-14.66557,1.76099-20.21648,2.73945-33.36594,16.20637-6.27331,6.0973-20.71201,20.05327-32.6954,31.85267,14.61371,17.54114,35.4568,41.84846,46.66593,54.09054,9.61811,10.51586,12.1973,12.04617,24.10507,13.45122v5.79595h-33.13618c-14.026-15.96746-30.34597-35.79415-47.68508-56.36001-4.49215-5.54956-7.82903-6.08197-11.00314-5.81576v36.72139c0,16.95414,1.71418,18.18272,17.96644,19.65844v5.79595h-54.29258v-5.79595c16.01891-1.40506,17.6769-2.7043,17.6769-19.65844v-75.9635c0-17.39981-1.49594-18.76972-17.6769-19.97886v-5.79632Z"/>
      <path class="st0" d="M659.05129,582.28874c-.95595,5.61313-3.76136,23.62723-4.80762,27.67227h-97.59714v-5.7608c18.37914-1.4402,19.73176-3.06061,19.73176-19.17688v-76.83614c0-17.27493-2.21763-18.28853-16.84719-19.62292v-5.79632h59.17438c19.04176,0,31.79869-.19554,34.25112-.39146.19807,4.64551.28954,16.50548,1.08324,27.1937l-6.27331.97845c-1.78548-6.65326-3.28142-8.40416-5.67839-12.40771-3.24541-5.99972-12.61432-7.33411-24.19654-7.33411h-15.56299c-6.40007,0-6.86823.55148-6.86823,6.40239v42.82317h21.55685c14.20102,0,15.37141-2.93536,17.85985-16.34733h6.43536v40.90926h-6.43536c-2.6865-14.15973-4.27392-16.18693-18.05791-16.18693h-21.35878v37.9896c0,13.66247,3.65019,15.36513,13.99791,15.56068h17.66538c11.92361,0,14.37681-1.43855,18.45045-6.81366,2.17847-2.87447,4.42661-8.44454,7.27517-14.45585l6.20201,1.6006Z"/>
    </g>
    <g>
      <path class="st0" d="M217.65624,701.4879c-1.74684,5.90062-4.99088,14.77384-6.88437,18.64413-3.55092.73238-13.37173,2.97259-22.85348,2.97259-30.4911,0-45.46446-19.70827-45.46446-40.70971,0-24.95753,19.40486-42.13985,47.71061-42.13985,10.75146,0,19.64163,2.26231,23.57883,2.82825.52148,5.53462,1.3949,13.16327,2.37062,19.13239l-4.06953.85426c-2.51797-8.417-5.64684-13.33191-12.05409-15.89395-3.19897-1.42057-8.20202-2.20855-12.69574-2.20855-20.13593,0-30.67565,14.86405-30.67565,34.82124,0,23.32929,12.34165,38.45956,31.99044,38.45956,12.32162,0,18.69381-5.66902,25.12395-18.09034l3.92289,1.32999Z"/>
      <path class="st0" d="M268.85052,640.25506c21.64814,0,40.69175,16.07216,40.69175,40.30946,0,26.18957-18.34974,42.5401-41.41782,42.5401-24.13321,0-41.71182-17.81455-41.71182-40.86362,0-21.66533,15.73233-41.98594,42.43788-41.98594ZM266.46774,644.92327c-13.74871,0-25.86718,11.60168-25.86718,34.19895,0,22.32185,11.93892,39.21366,29.4975,39.21366,14.51197,0,25.48305-11.02542,25.48305-34.35471,0-25.35998-13.10706-39.0579-29.11336-39.0579Z"/>
      <path class="st0" d="M397.34232,645.57759c-7.88226.5317-9.88448,2.54988-10.17848,7.94311-.17025,2.96007-.41919,7.90923-.41919,18.6515v13.68282c0,12.09435-1.54226,21.8093-8.75568,29.23065-5.84141,5.95659-15.12501,7.9188-23.77841,7.9188-7.41515,0-15.24018-1.5082-20.79689-5.7445-7.4409-5.56886-11.03617-13.81243-11.03617-27.97872v-31.07024c0-11.02542-1.02078-11.77953-10.9117-12.63341v-3.61439h33.84458v3.61439c-9.86803.65395-10.88881,1.60799-10.88881,12.63341v30.85557c0,17.06781,8.29429,26.69734,22.97294,26.69734,17.19948,0,22.23829-10.73748,22.23829-30.64091v-12.95081c0-10.72054-.37412-15.3129-.62377-18.67359-.39701-5.51253-2.64602-7.43313-11.78798-7.92101v-3.61439h30.12127v3.61439Z"/>
      <path class="st0" d="M493.62694,645.57759c-7.9166.87598-9.7593,2.16215-10.13342,7.75274-.17025,4.05845-.44208,9.00724-.44208,20.22303v48.86307h-5.87718l-52.4175-63.30956v29.97702c0,10.91533.35194,16.27431.62377,19.81284.29472,6.06927,2.59094,8.0753,11.61845,8.76349v3.61402h-30.42815v-3.61402c7.6226-.61013,9.90666-2.44052,10.45031-8.37539.39701-3.99254.64666-9.28561.64666-20.3011v-30.71897c0-3.52638-.24965-5.61047-2.51797-8.38239-2.34772-3.05065-4.30273-3.71675-10.2586-4.30479v-3.61439h19.72461l51.19929,60.05676v-28.4666c0-11.21579-.22676-16.24264-.60088-20.05697-.37483-5.44699-2.35416-7.30904-12.40245-7.9188v-3.61439h30.81514v3.61439Z"/>
      <path class="st0" d="M567.44365,661.47153c-1.16814-4.21236-2.88995-6.84031-4.23978-8.9487-2.04085-3.16296-3.24332-4.03894-10.19493-4.03894h-11.66781v57.54076c0,9.64904,1.04296,10.88145,12.76084,11.63555v3.61402h-37.22596v-3.61402c11.42316-.7541,12.44394-1.88636,12.44394-11.63555v-57.54076h-10.67993c-6.88366,0-8.88015.79792-11.04547,4.32688-1.54226,2.41843-2.67535,4.1019-4.29701,8.68248h-3.92217c.77041-7.70635,1.54154-15.72309,1.89349-22.3804h3.02658c1.87131,2.90668,3.26621,2.85034,6.80425,2.85034h49.49465c3.4708,0,4.60317-.53207,6.51955-2.85034h3.10669c.02218,5.6252.52148,14.76169,1.14525,21.9923l-3.92217.36637Z"/>
      <path class="st0" d="M654.27871,645.57759c-8.59831.95404-9.60979,2.36209-14.51054,10.10526-5.4115,8.66554-9.89306,16.77729-16.00631,27.87857-1.40706,2.65261-2.51368,4.11663-2.51368,7.06713v15.03012c0,10.21499,1.10018,10.88145,12.45539,12.00156v3.61402h-36.45698v-3.61402c11.08338-1.42057,11.9568-1.68642,11.9568-12.00156v-15.43294c0-2.48397-.49859-3.60444-2.29264-6.81343-4.23191-7.79913-8.54108-15.57397-15.41258-27.28537-4.82135-8.23105-6.1812-9.71716-14.43972-10.54932v-3.61439h31.74579v3.61439c-8.87014,1.19817-8.4159,2.78443-6.19264,6.95482,5.03738,9.1317,9.34655,19.13938,14.49624,28.24678,4.35638-7.93353,11.99829-20.19358,15.49126-27.03646,2.77979-5.88111,3.02586-7.16728-6.67263-8.16514v-3.61439h28.35225v3.61439Z"/>
    </g>
  </g>
  <path class="st0" d="M126.827,126.98291v171.01909c247.0714,0,284.36277-84.15958,530.76613-84.15958v-86.85951H126.827ZM261.5146,243.62549l-22.33664-16.22842-22.33655,16.22842,8.5318-26.25828-22.33664-16.22842h27.60958l8.5318-26.25828,8.5318,26.25828h27.60967l-22.33673,16.22842,8.53189,26.25828Z"/>
  <g>
    <path class="st1" d="M657.59306,419.98061v-124.2035c-182.73634-28.20841-378.77931,5.89317-530.76607,52.32228v19.22757c200.26375-54.80789,358.1341-50.15744,530.76607,52.65365Z"/>
    <path class="st1" d="M538.71051,414.09913c-121.74259-65.21557-257.57896-73.77882-411.88352-18.47208v64.45936c165.70657-80.64853,278.35265-72.30343,411.88352-45.98729Z"/>
  </g>
</svg>